<?xml version="1.0" encoding="utf-8"?>
<!-- Generator: Adobe Illustrator 25.4.1, SVG Export Plug-In . SVG Version: 6.00 Build 0)  -->
<svg version="1.1" id="Warstwa_1" xmlns="http://www.w3.org/2000/svg" xmlns:xlink="http://www.w3.org/1999/xlink" x="0px" y="0px"
	 viewBox="0 0 1133.9 340.2" style="enable-background:new 0 0 1133.9 340.2;" xml:space="preserve">
<style type="text/css">
	.st0{fill:#357E32;}
</style>
<g>
	<path class="st0" d="M199.9,339.6c-21.7-3.4-39.6-8.6-54.3-16.1c-5.6-2.8-13.1-5.8-16.7-6.8c-9.7-2.5-25.8-2.2-38.1,1
		c-13.1,3.3-32.6,3.5-45.3,0.5c-25.4-5.9-39.4-19.8-44.4-43.8c-1.6-7.8-1.5-9.2,0.6-17c3.1-11,7.3-17.9,13.8-22.7
		c20.6-14.8,48.7-16.6,68.5-4.5c3.5,2.1,14.4,11.9,24.3,21.8c18,18.1,18,18.1,24.8,18.1c7.6-0.1,19.6-4.2,32.6-11.4
		c15.4-8.5,50-37.1,77.7-64.2c15.5-15.3,15.5-15.3,4.1-15.3c-14.4,0-23.1-2.9-29.4-9.7c-6.3-6.9-8.4-11.8-9.2-20.8
		c-0.5-7.2-0.1-9,3.2-16.1c7.1-14.7,22.6-26.1,39.2-28.7c13.9-2.2,20.3,1.8,21.6,13.5c0.5,5.7,0.2,6.4-3.6,10.2
		c-3.2,3.2-6,4.4-11.7,5.5c-18.5,3.6-22.3,13.7-7.7,20.4c13.5,6.2,28,2.5,38.5-9.6c3-3.5,8.9-11.5,13.3-17.8
		C334.8,76.8,406.1,12.7,439.2,2.2c6.7-2.1,10.4-2.5,15.1-2.1c8.4,1,18.2,6.5,22.5,12.6c4.6,6.5,7.6,18.4,6.9,27
		c-0.7,9.3-10.7,29.1-21.2,41.8c-14.1,17.1-37.2,37.9-54.1,49c-19.8,12.8-28.8,17.2-62.1,29.8c-56.9,21.7-52.3,19.3-65.7,33.6
		c-22.5,23.9-57.7,57.5-69.5,66.3c-12.7,9.6-26.2,18.4-40.6,26.7c-5,2.8-9.1,5.3-9.1,5.7c0,0.2,3.8,2.9,8.6,5.9
		c9.2,5.8,18,9.6,27.2,11.6c7.7,1.7,41.6,1.6,55.6-0.2c22.2-2.8,50-11.9,64.8-20.8c5.1-3.3,5.2-3.4,5.2-10.3
		c0-8.8,2.9-19.5,7.1-26.7c4.3-7.4,27.4-29.8,36.8-35.9c11.5-7.5,18.4-9.6,29.4-9c16.4,1,24.7,7.5,25.7,20.2
		c0.9,11.2-2.2,18.5-11.4,27.4c-8.9,8.6-18.2,13.7-34.1,18.7c-18.4,5.8-21.2,9-13.8,15.2c5,4,10,5.3,27.3,6.9
		c15.5,1.5,31,0.7,42.9-1.9c8.9-2.1,27.4-8.5,29.8-10.4c1-0.7,1.7-3.6,1.7-6.4c0-7.2,3.1-18.1,7.1-24.7c4.3-7.4,27.4-29.8,36.8-35.9
		c11.5-7.5,18.4-9.6,29.4-9c16.4,1,24.7,7.5,25.7,20.2c0.9,11.2-2.2,18.5-11.4,27.4c-8.9,8.6-18.2,13.7-34.1,18.7
		c-18.4,5.8-21.2,9-13.8,15.2c5,4,10,5.3,27.3,6.9c26.7,2.4,47.1-0.8,71.8-11.6c6.8-3,7.3-3.5,8.1-8.2c0.7-4.4,2.9-6.9,15.5-19.6
		c10.4-10.3,17.4-18.7,24.1-28.5c6.9-10.5,10.4-14.5,14.3-16.6c10.4-5.8,18.7-2.1,23.2,10.4c2.4,6.7,2.4,14.7,0.1,20
		c-2.4,5.5-13.6,16.1-22.6,21.2c-12.9,7.4-17.9,13.2-17.9,21c0,8.5,7.4,13,17.7,10.7c14-3,26.5-9.8,49.5-26.9
		c21.1-15.8,23.6-18.7,27.4-34.3c4-16.1,7.9-23,14.9-26.2c9.3-4.1,16.4-2.7,29.6,5.8c10.8,7,8.2,21-7.1,38.7
		c-12.7,14.5-13.8,20.4-5.2,28c7.2,6.5,12.7,8.1,24.7,7.3c7.1-0.5,11.7-1.6,16.6-3.9c6.1-2.9,6.7-3.6,6.7-7.2
		c0-5.9,3.3-17.3,7.1-23.5c4.3-7.4,27.4-29.8,36.8-35.9c11.5-7.5,18.4-9.6,29.4-9c16.4,1,24.7,7.5,25.7,20.2
		c0.9,11.2-2.2,18.5-11.4,27.4c-8.9,8.6-18.2,13.7-34.1,18.7c-13.4,4.2-17.5,6.5-17.5,9.7c0,3,6.5,8.2,12.2,9.8
		c7.9,2.2,32.6,3.9,43.7,3c17.4-1.2,39.4-7.3,38.6-10.4c-0.2-1-0.6-6.1-1-11.5c-1.4-18.9,4.2-28.4,16.6-28.4c7.9,0,10.7,3.9,14.5,21
		c0.7,2.9,1.2,3.2,4.2,2.5c9.3-1.9,17.6-5.3,37.5-14.9c11.9-5.8,27.8-13.2,35.2-16.5c16-7,33.4-18.1,38.6-24.4
		c2.1-2.5,5.5-7.5,7.6-11.3c2.5-4.4,5.3-7.6,8.1-9.1c4-2.1,4.8-2.2,9.9-0.6c6.2,1.9,8.6,5.5,9.6,14.1c1.4,11.9-8.1,23.9-27.2,34.8
		c-23.1,13.1-28.9,17.1-38.1,26.1c-7.9,7.8-11,12-17.5,24.1c-4.3,8.1-9.6,16.6-11.5,18.9c-7.7,9.2-28.5,15.2-47.6,13.7
		c-12.9-1-19.6-4.4-25.8-13.2c-4.8-6.9-4.8-6.9-9.8-4.4c-15.6,7.8-34.2,12.6-56.2,14.5c-14.1,1.2-18.4,1.2-31.4-0.6
		c-19.7-2.7-27.3-5.6-35.6-13.5c-6.6-6.2-6.6-6.2-13.8-2.9c-10.3,4.5-19.7,6.2-31.9,5.6c-8.9-0.5-11.9-1.2-19.7-5
		c-8.6-4.1-11.2-6.3-20.3-17.1c-4.6-5.3-8.4-4.4-22.7,6.2c-16.9,12.2-23.6,16.1-39.7,22.7c-12.2,5-14.5,5.6-23.2,5.6
		c-20.8,0-39.9-8.6-46.4-20.8c-2.5-4.7-2.5-4.7-6.3-1.6c-12.5,10.3-39.8,18.9-67.5,21.5c-14.1,1.2-18.4,1.2-31.4-0.6
		c-19.8-2.8-27.3-5.6-35.8-13.6c-6.7-6.4-6.7-6.4-14.4-2.4c-17,9.2-36,14.4-59.8,16.6c-14.1,1.2-18.4,1.2-31.4-0.6
		c-19.1-2.7-26.9-5.6-35.2-13c-6.6-5.8-6.6-5.8-16.5,1.9c-11.2,8.8-33.1,20-44.9,22.9C249.6,338.1,213.1,341.6,199.9,339.6
		L199.9,339.6z M1016.5,294c8.8-4.2,18-12.4,25.1-22.1c8.3-11.3,7.4-12.7-3.3-5.7c-14.1,9.3-22.1,13.3-35.8,18.2
		c-6.9,2.4-12.9,5.1-13.1,5.9c-0.4,0.8,0.9,2.9,2.7,4.7c3,2.9,4,3.2,10.4,2.7C1006.7,297.5,1012.2,295.9,1016.5,294L1016.5,294z
		 M91.2,293.1c3.6-1.3,8.6-3.6,11-5.2c4.7-2.7,4.7-2.7-5.6-10.8c-14.6-11.5-27.9-20.2-33-21.6c-9.9-2.7-24.4-0.6-29.9,4.2
		c-6.2,5.5-3.2,17.6,6,24.6C54.3,295.8,74.7,299.2,91.2,293.1z M365.5,258.5c16.2-5.9,25.4-13.2,25.4-20.1c0-5.9-6.3-5.1-18.2,2.2
		c-6.2,3.9-12,10.4-16,17.8C354.5,262.4,355.1,262.4,365.5,258.5z M506.9,258.5c16.2-5.9,25.4-13.2,25.4-20.1
		c0-5.9-6.3-5.1-18.2,2.2c-6.2,3.9-12,10.4-16,17.8C495.9,262.4,496.5,262.4,506.9,258.5z M865.4,258.5
		c16.2-5.9,25.4-13.2,25.4-20.1c0-5.9-6.3-5.1-18.2,2.2c-6.2,3.9-12,10.4-16,17.8C854.4,262.4,855,262.4,865.4,258.5L865.4,258.5z
		 M353.3,130.5c21.2-8.5,55.2-32.5,69.1-48.7c9.6-11.3,17.6-30.4,14.4-34.2c-2.2-2.7-5.8-2.1-13.4,2.1c-17,9.3-47.4,35.6-68.6,59.2
		C329.7,136.7,329.4,140.2,353.3,130.5L353.3,130.5z"/>
</g>
</svg>
